<svg width="800" height="600" viewBox="0 0 800 600" fill="none" xmlns="http://www.w3.org/2000/svg">
  <defs>
    <linearGradient id="bg" x1="0%" y1="0%" x2="100%" y2="100%">
      <stop offset="0%" style="stop-color:#667eea;stop-opacity:1" />
      <stop offset="100%" style="stop-color:#764ba2;stop-opacity:1" />
    </linearGradient>
    <linearGradient id="card1" x1="0%" y1="0%" x2="100%" y2="100%">
      <stop offset="0%" style="stop-color:#4f46e5;stop-opacity:1" />
      <stop offset="100%" style="stop-color:#7c3aed;stop-opacity:1" />
    </linearGradient>
    <linearGradient id="card2" x1="0%" y1="0%" x2="100%" y2="100%">
      <stop offset="0%" style="stop-color:#059669;stop-opacity:1" />
      <stop offset="100%" style="stop-color:#0d9488;stop-opacity:1" />
    </linearGradient>
    <linearGradient id="card3" x1="0%" y1="0%" x2="100%" y2="100%">
      <stop offset="0%" style="stop-color:#dc2626;stop-opacity:1" />
      <stop offset="100%" style="stop-color:#ea580c;stop-opacity:1" />
    </linearGradient>
  </defs>
  
  <!-- Background -->
  <rect width="800" height="600" fill="url(#bg)"/>
  
  <!-- Grid pattern -->
  <defs>
    <pattern id="grid" width="40" height="40" patternUnits="userSpaceOnUse">
      <path d="M 40 0 L 0 0 0 40" fill="none" stroke="#ffffff" stroke-width="0.5" stroke-opacity="0.1"/>
    </pattern>
  </defs>
  <rect width="800" height="600" fill="url(#grid)"/>
  
  <!-- Main title -->
  <text x="400" y="80" text-anchor="middle" fill="white" font-family="Inter, sans-serif" font-size="42" font-weight="800">Landing Page Gallery</text>
  <text x="400" y="120" text-anchor="middle" fill="rgba(255,255,255,0.8)" font-family="Inter, sans-serif" font-size="24" font-weight="400">50+ Best Examples [2025]</text>
  
  <!-- Gallery cards mockup -->
  <!-- Card 1 - Top left -->
  <rect x="120" y="180" width="180" height="120" rx="12" fill="url(#card1)" opacity="0.9"/>
  <rect x="135" y="195" width="30" height="4" rx="2" fill="rgba(255,255,255,0.8)"/>
  <rect x="135" y="210" width="80" height="3" rx="1.5" fill="rgba(255,255,255,0.6)"/>
  <rect x="135" y="220" width="60" height="3" rx="1.5" fill="rgba(255,255,255,0.6)"/>
  <rect x="135" y="245" width="100" height="20" rx="4" fill="rgba(255,255,255,0.2)" stroke="rgba(255,255,255,0.4)" stroke-width="1"/>
  <text x="185" y="258" text-anchor="middle" fill="white" font-family="Inter, sans-serif" font-size="11" font-weight="600">View Live</text>
  <!-- Conversion badge -->
  <circle cx="280" cy="200" r="15" fill="#10b981"/>
  <text x="280" y="205" text-anchor="middle" fill="white" font-family="Inter, sans-serif" font-size="10" font-weight="700">15%</text>
  
  <!-- Card 2 - Top right -->
  <rect x="320" y="180" width="180" height="120" rx="12" fill="url(#card2)" opacity="0.9"/>
  <rect x="335" y="195" width="30" height="4" rx="2" fill="rgba(255,255,255,0.8)"/>
  <rect x="335" y="210" width="90" height="3" rx="1.5" fill="rgba(255,255,255,0.6)"/>
  <rect x="335" y="220" width="70" height="3" rx="1.5" fill="rgba(255,255,255,0.6)"/>
  <rect x="335" y="245" width="100" height="20" rx="4" fill="rgba(255,255,255,0.2)" stroke="rgba(255,255,255,0.4)" stroke-width="1"/>
  <text x="385" y="258" text-anchor="middle" fill="white" font-family="Inter, sans-serif" font-size="11" font-weight="600">View Code</text>
  <!-- Conversion badge -->
  <circle cx="480" cy="200" r="15" fill="#10b981"/>
  <text x="480" y="205" text-anchor="middle" fill="white" font-family="Inter, sans-serif" font-size="10" font-weight="700">22%</text>
  
  <!-- Card 3 - Bottom left -->
  <rect x="520" y="180" width="180" height="120" rx="12" fill="url(#card3)" opacity="0.9"/>
  <rect x="535" y="195" width="30" height="4" rx="2" fill="rgba(255,255,255,0.8)"/>
  <rect x="535" y="210" width="85" height="3" rx="1.5" fill="rgba(255,255,255,0.6)"/>
  <rect x="535" y="220" width="65" height="3" rx="1.5" fill="rgba(255,255,255,0.6)"/>
  <rect x="535" y="245" width="100" height="20" rx="4" fill="rgba(255,255,255,0.2)" stroke="rgba(255,255,255,0.4)" stroke-width="1"/>
  <text x="585" y="258" text-anchor="middle" fill="white" font-family="Inter, sans-serif" font-size="11" font-weight="600">Analysis</text>
  <!-- Conversion badge -->
  <circle cx="680" cy="200" r="15" fill="#10b981"/>
  <text x="680" y="205" text-anchor="middle" fill="white" font-family="Inter, sans-serif" font-size="10" font-weight="700">18%</text>
  
  <!-- Second row of cards -->
  <!-- Card 4 -->
  <rect x="120" y="320" width="180" height="120" rx="12" fill="rgba(255,255,255,0.1)" stroke="rgba(255,255,255,0.2)" stroke-width="1"/>
  <rect x="135" y="335" width="30" height="4" rx="2" fill="rgba(255,255,255,0.7)"/>
  <rect x="135" y="350" width="80" height="3" rx="1.5" fill="rgba(255,255,255,0.5)"/>
  <rect x="135" y="360" width="60" height="3" rx="1.5" fill="rgba(255,255,255,0.5)"/>
  <rect x="135" y="385" width="100" height="20" rx="4" fill="rgba(255,255,255,0.1)" stroke="rgba(255,255,255,0.3)" stroke-width="1"/>
  <!-- Conversion badge -->
  <circle cx="280" cy="340" r="15" fill="#10b981"/>
  <text x="280" y="345" text-anchor="middle" fill="white" font-family="Inter, sans-serif" font-size="10" font-weight="700">25%</text>
  
  <!-- Card 5 -->
  <rect x="320" y="320" width="180" height="120" rx="12" fill="rgba(255,255,255,0.1)" stroke="rgba(255,255,255,0.2)" stroke-width="1"/>
  <rect x="335" y="335" width="30" height="4" rx="2" fill="rgba(255,255,255,0.7)"/>
  <rect x="335" y="350" width="90" height="3" rx="1.5" fill="rgba(255,255,255,0.5)"/>
  <rect x="335" y="360" width="70" height="3" rx="1.5" fill="rgba(255,255,255,0.5)"/>
  <rect x="335" y="385" width="100" height="20" rx="4" fill="rgba(255,255,255,0.1)" stroke="rgba(255,255,255,0.3)" stroke-width="1"/>
  <!-- Conversion badge -->
  <circle cx="480" cy="340" r="15" fill="#10b981"/>
  <text x="480" y="345" text-anchor="middle" fill="white" font-family="Inter, sans-serif" font-size="10" font-weight="700">12%</text>
  
  <!-- Card 6 -->
  <rect x="520" y="320" width="180" height="120" rx="12" fill="rgba(255,255,255,0.1)" stroke="rgba(255,255,255,0.2)" stroke-width="1"/>
  <rect x="535" y="335" width="30" height="4" rx="2" fill="rgba(255,255,255,0.7)"/>
  <rect x="535" y="350" width="85" height="3" rx="1.5" fill="rgba(255,255,255,0.5)"/>
  <rect x="535" y="360" width="65" height="3" rx="1.5" fill="rgba(255,255,255,0.5)"/>
  <rect x="535" y="385" width="100" height="20" rx="4" fill="rgba(255,255,255,0.1)" stroke="rgba(255,255,255,0.3)" stroke-width="1"/>
  <!-- Conversion badge -->
  <circle cx="680" cy="340" r="15" fill="#10b981"/>
  <text x="680" y="345" text-anchor="middle" fill="white" font-family="Inter, sans-serif" font-size="10" font-weight="700">30%</text>
  
  <!-- Stats at bottom -->
  <text x="400" y="500" text-anchor="middle" fill="rgba(255,255,255,0.9)" font-family="Inter, sans-serif" font-size="18" font-weight="600">Detailed Conversion Analysis</text>
  <text x="400" y="525" text-anchor="middle" fill="rgba(255,255,255,0.7)" font-family="Inter, sans-serif" font-size="14">Tech Stack • Performance • Psychology</text>
  
  <!-- Decorative elements -->
  <circle cx="80" cy="150" r="2" fill="rgba(255,255,255,0.3)"/>
  <circle cx="720" cy="480" r="3" fill="rgba(255,255,255,0.2)"/>
  <circle cx="60" cy="400" r="1.5" fill="rgba(255,255,255,0.4)"/>
  <circle cx="740" cy="120" r="2.5" fill="rgba(255,255,255,0.3)"/>
</svg>