<svg width="800" height="400" viewBox="0 0 800 400" xmlns="http://www.w3.org/2000/svg">
  <defs>
    <linearGradient id="grad1" x1="0%" y1="0%" x2="100%" y2="100%">
      <stop offset="0%" style="stop-color:#667eea;stop-opacity:1" />
      <stop offset="100%" style="stop-color:#764ba2;stop-opacity:1" />
    </linearGradient>
    <pattern id="pattern" x="0" y="0" width="60" height="60" patternUnits="userSpaceOnUse">
      <g fill="#ffffff" fill-opacity="0.1">
        <path d="M36 34v-4h-2v4h-4v2h4v4h2v-4h4v-2h-4zm0-30V0h-2v4h-4v2h4v4h2V6h4V4h-4zM6 34v-4H4v4H0v2h4v4h2v-4h4v-2H6zM6 4V0H4v4H0v2h4v4h2V6h4V4H6z"/>
      </g>
    </pattern>
  </defs>
  
  <rect width="100%" height="100%" fill="url(#grad1)"/>
  <rect width="100%" height="100%" fill="url(#pattern)"/>
  
  <!-- React Logo -->
  <g transform="translate(150, 100)">
    <circle cx="50" cy="50" r="40" fill="none" stroke="#61dafb" stroke-width="3"/>
    <ellipse cx="50" cy="50" rx="60" ry="20" fill="none" stroke="#61dafb" stroke-width="3" transform="rotate(60 50 50)"/>
    <ellipse cx="50" cy="50" rx="60" ry="20" fill="none" stroke="#61dafb" stroke-width="3" transform="rotate(-60 50 50)"/>
    <circle cx="50" cy="50" r="8" fill="#61dafb"/>
  </g>
  
  <!-- FastAPI Logo representation -->
  <g transform="translate(550, 120)">
    <rect x="0" y="0" width="80" height="60" rx="10" fill="#009688" opacity="0.8"/>
    <text x="40" y="35" text-anchor="middle" fill="white" font-family="Arial" font-weight="bold" font-size="14">API</text>
  </g>
  
  <!-- Title -->
  <text x="400" y="250" text-anchor="middle" fill="white" font-family="Arial" font-weight="bold" font-size="32" style="text-shadow: 0 2px 4px rgba(0,0,0,0.3);">
    React + FastAPI SaaS Tutorial
  </text>
  
  <!-- Subtitle -->
  <text x="400" y="280" text-anchor="middle" fill="white" font-family="Arial" font-size="16" opacity="0.9">
    Complete Full-Stack Development Guide
  </text>
  
  <!-- Code symbols -->
  <g transform="translate(50, 300)" opacity="0.3">
    <text fill="white" font-family="monospace" font-size="14">{'</>'}</text>
  </g>
  <g transform="translate(700, 80)" opacity="0.3">
    <text fill="white" font-family="monospace" font-size="14">{'{ }'}</text>
  </g>
</svg>